<?xml version="1.0" encoding="iso-8859-1"?>
<!-- Generator: Adobe Illustrator 18.1.1, SVG Export Plug-In . SVG Version: 6.00 Build 0)  -->
<svg version="1.1" id="Capa_1" xmlns="http://www.w3.org/2000/svg" xmlns:xlink="http://www.w3.org/1999/xlink" x="0px" y="0px"
	 viewBox="0 0 20.63 20.63" style="enable-background:new 0 0 20.63 20.63;" xml:space="preserve">
<g>
	<path style="fill:#030104;" d="M19.993,4.071H0.638C0.285,4.071,0,4.356,0,4.709v11.212c0,0.353,0.286,0.638,0.638,0.638h19.354
		c0.353,0,0.638-0.285,0.638-0.638V4.709C20.63,4.356,20.345,4.071,19.993,4.071z M15.226,11.358H8.734l1.886,1.887
		c0.408,0.408,0.408,1.068,0.001,1.476c-0.409,0.408-1.07,0.408-1.478,0l-3.576-3.574c-0.217-0.219-0.311-0.505-0.296-0.79
		c-0.001-0.015-0.009-0.026-0.009-0.042s0.008-0.028,0.009-0.043C5.258,9.989,5.353,9.703,5.568,9.486l3.575-3.575
		c0.408-0.408,1.069-0.408,1.477-0.001c0.408,0.41,0.408,1.071,0,1.478L8.736,9.272h6.489c0.577,0,1.045,0.468,1.045,1.044
		C16.271,10.891,15.803,11.358,15.226,11.358z"/>
</g>
<g>
</g>
<g>
</g>
<g>
</g>
<g>
</g>
<g>
</g>
<g>
</g>
<g>
</g>
<g>
</g>
<g>
</g>
<g>
</g>
<g>
</g>
<g>
</g>
<g>
</g>
<g>
</g>
<g>
</g>
</svg>
